<?xml version="1.0" encoding="UTF-8"?>
<!DOCTYPE svg PUBLIC "-//W3C//DTD SVG 1.1//EN" "http://www.w3.org/Graphics/SVG/1.1/DTD/svg11.dtd">
<svg width="160mm" height="90mm" viewBox="0 0 16000 9000">
 <path fill="rgb(255,255,255)" stroke="none" d="M 8000,8999 L 0,8999 0,0 15999,0 15999,8999 8000,8999 Z"/>
 <path fill="none" stroke="rgb(179,179,179)" stroke-linejoin="round" d="M 8827,7384 L 2359,7384 2359,1819 15295,1819 15295,7384 8827,7384 Z"/>
 <path fill="none" stroke="rgb(179,179,179)" stroke-linejoin="round" d="M 15295,7383 L 2359,7383"/>
 <path fill="none" stroke="rgb(179,179,179)" stroke-linejoin="round" d="M 15295,5527 L 2359,5527"/>
 <path fill="none" stroke="rgb(179,179,179)" stroke-linejoin="round" d="M 15295,3673 L 2359,3673"/>
 <path fill="none" stroke="rgb(179,179,179)" stroke-linejoin="round" d="M 15295,1817 L 2359,1817"/>
 <path fill="none" stroke="rgb(179,179,179)" stroke-linejoin="round" d="M 15295,6824 L 2359,6824"/>
 <path fill="none" stroke="rgb(179,179,179)" stroke-linejoin="round" d="M 15295,6497 L 2359,6497"/>
 <path fill="none" stroke="rgb(179,179,179)" stroke-linejoin="round" d="M 15295,6265 L 2359,6265"/>
 <path fill="none" stroke="rgb(179,179,179)" stroke-linejoin="round" d="M 15295,6086 L 2359,6086"/>
 <path fill="none" stroke="rgb(179,179,179)" stroke-linejoin="round" d="M 15295,5939 L 2359,5939"/>
 <path fill="none" stroke="rgb(179,179,179)" stroke-linejoin="round" d="M 15295,5815 L 2359,5815"/>
 <path fill="none" stroke="rgb(179,179,179)" stroke-linejoin="round" d="M 15295,5707 L 2359,5707"/>
 <path fill="none" stroke="rgb(179,179,179)" stroke-linejoin="round" d="M 15295,5612 L 2359,5612"/>
 <path fill="none" stroke="rgb(179,179,179)" stroke-linejoin="round" d="M 15295,4969 L 2359,4969"/>
 <path fill="none" stroke="rgb(179,179,179)" stroke-linejoin="round" d="M 15295,4642 L 2359,4642"/>
 <path fill="none" stroke="rgb(179,179,179)" stroke-linejoin="round" d="M 15295,4411 L 2359,4411"/>
 <path fill="none" stroke="rgb(179,179,179)" stroke-linejoin="round" d="M 15295,4231 L 2359,4231"/>
 <path fill="none" stroke="rgb(179,179,179)" stroke-linejoin="round" d="M 15295,4084 L 2359,4084"/>
 <path fill="none" stroke="rgb(179,179,179)" stroke-linejoin="round" d="M 15295,3960 L 2359,3960"/>
 <path fill="none" stroke="rgb(179,179,179)" stroke-linejoin="round" d="M 15295,3853 L 2359,3853"/>
 <path fill="none" stroke="rgb(179,179,179)" stroke-linejoin="round" d="M 15295,3758 L 2359,3758"/>
 <path fill="none" stroke="rgb(179,179,179)" stroke-linejoin="round" d="M 15295,3114 L 2359,3114"/>
 <path fill="none" stroke="rgb(179,179,179)" stroke-linejoin="round" d="M 15295,2788 L 2359,2788"/>
 <path fill="none" stroke="rgb(179,179,179)" stroke-linejoin="round" d="M 15295,2556 L 2359,2556"/>
 <path fill="none" stroke="rgb(179,179,179)" stroke-linejoin="round" d="M 15295,2376 L 2359,2376"/>
 <path fill="none" stroke="rgb(179,179,179)" stroke-linejoin="round" d="M 15295,2229 L 2359,2229"/>
 <path fill="none" stroke="rgb(179,179,179)" stroke-linejoin="round" d="M 15295,2105 L 2359,2105"/>
 <path fill="none" stroke="rgb(179,179,179)" stroke-linejoin="round" d="M 15295,1997 L 2359,1997"/>
 <path fill="none" stroke="rgb(179,179,179)" stroke-linejoin="round" d="M 15295,1902 L 2359,1902"/>
 <path fill="none" stroke="rgb(179,179,179)" stroke-linejoin="round" d="M 2359,7533 L 2359,7383"/>
 <path fill="none" stroke="rgb(179,179,179)" stroke-linejoin="round" d="M 2359,7533 L 2359,7383"/>
 <path fill="none" stroke="rgb(179,179,179)" stroke-linejoin="round" d="M 4946,7533 L 4946,7383"/>
 <path fill="none" stroke="rgb(179,179,179)" stroke-linejoin="round" d="M 4946,7533 L 4946,7383"/>
 <path fill="none" stroke="rgb(179,179,179)" stroke-linejoin="round" d="M 7533,7533 L 7533,7383"/>
 <path fill="none" stroke="rgb(179,179,179)" stroke-linejoin="round" d="M 7533,7533 L 7533,7383"/>
 <path fill="none" stroke="rgb(179,179,179)" stroke-linejoin="round" d="M 10120,7533 L 10120,7383"/>
 <path fill="none" stroke="rgb(179,179,179)" stroke-linejoin="round" d="M 10120,7533 L 10120,7383"/>
 <path fill="none" stroke="rgb(179,179,179)" stroke-linejoin="round" d="M 12707,7533 L 12707,7383"/>
 <path fill="none" stroke="rgb(179,179,179)" stroke-linejoin="round" d="M 12707,7533 L 12707,7383"/>
 <path fill="none" stroke="rgb(179,179,179)" stroke-linejoin="round" d="M 15295,7533 L 15295,7383"/>
 <path fill="none" stroke="rgb(179,179,179)" stroke-linejoin="round" d="M 15295,7533 L 15295,7383"/>
 <path fill="none" stroke="rgb(179,179,179)" stroke-linejoin="round" d="M 2359,7383 L 15295,7383"/>
 <path fill="none" stroke="rgb(179,179,179)" stroke-linejoin="round" d="M 2209,7383 L 2359,7383"/>
 <path fill="none" stroke="rgb(179,179,179)" stroke-linejoin="round" d="M 2209,7383 L 2359,7383"/>
 <path fill="none" stroke="rgb(179,179,179)" stroke-linejoin="round" d="M 2209,5527 L 2359,5527"/>
 <path fill="none" stroke="rgb(179,179,179)" stroke-linejoin="round" d="M 2209,5527 L 2359,5527"/>
 <path fill="none" stroke="rgb(179,179,179)" stroke-linejoin="round" d="M 2209,3673 L 2359,3673"/>
 <path fill="none" stroke="rgb(179,179,179)" stroke-linejoin="round" d="M 2209,3673 L 2359,3673"/>
 <path fill="none" stroke="rgb(179,179,179)" stroke-linejoin="round" d="M 2209,1818 L 2359,1818"/>
 <path fill="none" stroke="rgb(179,179,179)" stroke-linejoin="round" d="M 2209,1818 L 2359,1818"/>
 <path fill="none" stroke="rgb(179,179,179)" stroke-linejoin="round" d="M 2359,7383 L 2359,1818"/>
 <path fill="rgb(0,69,134)" stroke="none" d="M 13354,7383 L 14648,7383 14648,6740 13354,6740 13354,7383 Z"/>
 <path fill="rgb(0,69,134)" stroke="none" d="M 10767,7383 L 12060,7383 12060,6755 10767,6755 10767,7383 Z"/>
 <path fill="rgb(0,69,134)" stroke="none" d="M 8179,7383 L 9473,7383 9473,5732 8179,5732 8179,7383 Z"/>
 <path fill="rgb(0,69,134)" stroke="none" d="M 5593,7383 L 6886,7383 6886,5943 5593,5943 5593,7383 Z"/>
 <path fill="rgb(0,69,134)" stroke="none" d="M 3005,7383 L 4299,7383 4299,3186 3005,3186 3005,7383 Z"/>
 <text class="TextShape"><tspan class="TextParagraph" font-family="Liberation Sans, sans-serif" font-size="353px" font-weight="400"><tspan class="TextPosition" x="2685" y="8331"><tspan fill="rgb(0,0,0)" stroke="none">Pure Python</tspan></tspan></tspan></text>
 <text class="TextShape"><tspan class="TextParagraph" font-family="Liberation Sans, sans-serif" font-size="353px" font-weight="400"><tspan class="TextPosition" x="5678" y="7948"><tspan fill="rgb(0,0,0)" stroke="none">Numpy</tspan></tspan></tspan></text>
 <text class="TextShape"><tspan class="TextParagraph" font-family="Liberation Sans, sans-serif" font-size="353px" font-weight="400"><tspan class="TextPosition" x="7692" y="8331"><tspan fill="rgb(0,0,0)" stroke="none">Cython - naive</tspan></tspan></tspan></text>
 <text class="TextShape"><tspan class="TextParagraph" font-family="Liberation Sans, sans-serif" font-size="353px" font-weight="400"><tspan class="TextPosition" x="10009" y="7948"><tspan fill="rgb(0,0,0)" stroke="none">Optimised Cython</tspan></tspan></tspan></text>
 <text class="TextShape"><tspan class="TextParagraph" font-family="Liberation Sans, sans-serif" font-size="353px" font-weight="400"><tspan class="TextPosition" x="12721" y="8331"><tspan fill="rgb(0,0,0)" stroke="none">Cython calling C</tspan></tspan></tspan></text>
 <text class="TextShape"><tspan class="TextParagraph" font-family="Liberation Sans, sans-serif" font-size="353px" font-weight="400"><tspan class="TextPosition" x="1907" y="7508"><tspan fill="rgb(0,0,0)" stroke="none">1</tspan></tspan></tspan></text>
 <text class="TextShape"><tspan class="TextParagraph" font-family="Liberation Sans, sans-serif" font-size="353px" font-weight="400"><tspan class="TextPosition" x="1727" y="5652"><tspan fill="rgb(0,0,0)" stroke="none">10</tspan></tspan></tspan></text>
 <text class="TextShape"><tspan class="TextParagraph" font-family="Liberation Sans, sans-serif" font-size="353px" font-weight="400"><tspan class="TextPosition" x="1525" y="3797"><tspan fill="rgb(0,0,0)" stroke="none">100</tspan></tspan></tspan></text>
 <text class="TextShape"><tspan class="TextParagraph" font-family="Liberation Sans, sans-serif" font-size="353px" font-weight="400"><tspan class="TextPosition" x="1322" y="1942"><tspan fill="rgb(0,0,0)" stroke="none">1000</tspan></tspan></tspan></text>
 <text class="TextShape"><tspan class="TextParagraph" font-family="Liberation Sans, sans-serif" font-size="459px" font-weight="400"><tspan class="TextPosition" x="4325" y="859"><tspan fill="rgb(0,0,0)" stroke="none">Standard Deviation of 1e6 Elements</tspan></tspan></tspan></text>
 <text class="TextShape"><tspan class="TextParagraph" font-family="Liberation Sans, sans-serif" font-size="318px" font-weight="400"><tspan class="TextPosition" x="838" y="5720" transform="translate(838,5720) rotate(-90) translate(-838,-5720)"><tspan fill="rgb(0,0,0)" stroke="none">Time (ms)</tspan></tspan></tspan></text>
</svg>